<svg id="Layer_1" data-name="Layer 1" xmlns="http://www.w3.org/2000/svg" viewBox="0 0 99.33 81.91"><defs><style>.cls-1{fill:#f7981d;}.cls-2{fill:#fff;}</style></defs><title>cloud_aws_expertise_2018-1</title><path class="cls-1" d="M51.51,59.56a9,9,0,0,1,7.54-6.35A16.34,16.34,0,0,1,78,44.63,38.12,38.12,0,1,0,40.08,78.48a38.3,38.3,0,0,0,8.07-.87,12.27,12.27,0,0,1-2.56-7.51A12.47,12.47,0,0,1,51.51,59.56Z"/><path class="cls-1" d="M86,55.71a13.1,13.1,0,0,0-24.71.82,6.17,6.17,0,0,0-1.07-.1,5.73,5.73,0,0,0-5.74,5.32,9.06,9.06,0,0,0,3.49,17.41H85.74A11.73,11.73,0,0,0,86,55.71ZM91,76.43a10.35,10.35,0,0,1-5.29,1.44H57.93a7.76,7.76,0,0,1-2.82-15l.58-.22,0-.63a4.45,4.45,0,0,1,4.46-4.3,4.58,4.58,0,0,1,1.08.12l.89.24.26-.89a11.8,11.8,0,0,1,22.42-.82l.3.62h.61A10.43,10.43,0,0,1,91,76.43Z"/><path class="cls-1" d="M85.74,60.1a.65.65,0,1,0,0,1.3,6,6,0,0,1,3.07,11.23,6,6,0,0,1-3.07.84.65.65,0,1,0,0,1.29,7.33,7.33,0,1,0,0-14.66Z"/><path id="_Compound_Path_" data-name="&lt;Compound Path&gt;" class="cls-2" d="M37.39,61.35V56.72A27.09,27.09,0,0,1,27,54.2l1.86-7.41a24.46,24.46,0,0,0,10.29,2.57c2.73,0,4.79-.62,4.79-2.31s-1.6-2.43-5.87-3.45c-6-1.45-10.76-4.17-10.76-9.78,0-5,3.6-8.81,10-9.89V19.35h6.12v4.22a24.5,24.5,0,0,1,8.7,1.75l-1.8,7.16a22.15,22.15,0,0,0-8.9-2c-3.3,0-4.12,1.08-4.12,2.11,0,1.29,2.21,2.32,6.79,3.6,7.16,2,9.83,4.84,9.83,9.94,0,4.89-3.65,9-10.5,10.09v5.09Z"/><path class="cls-2" d="M85.59,57H85l-.29-.61a11.76,11.76,0,0,0-22.33.81l-.25.89-.89-.23a4.1,4.1,0,0,0-1.08-.13A4.43,4.43,0,0,0,55.7,62l0,.63-.58.22A7.73,7.73,0,0,0,57.9,77.81H85.59a10.29,10.29,0,0,0,5.27-1.43A10.39,10.39,0,0,0,85.59,57ZM89.3,73.71a7.28,7.28,0,0,1-3.71,1,.65.65,0,0,1,0-1.29,6,6,0,1,0,0-12,.63.63,0,0,1-.64-.64.64.64,0,0,1,.64-.65A7.3,7.3,0,0,1,89.3,73.71Z"/></svg>